<svg xmlns="http://www.w3.org/2000/svg" viewBox="0 0 446.41 446.41"><g data-name="Calque 2"><path d="M225.85 199.71a6.63 6.63 0 0 0 .76-3.62 9.8 9.8 0 0 0-.79-4.57 2.68 2.68 0 0 0-2.5-1.38 2.72 2.72 0 0 0-2.44 1.12 6.61 6.61 0 0 0-.75 3.6 10 10 0 0 0 .77 4.59 2.66 2.66 0 0 0 2.52 1.36 2.74 2.74 0 0 0 2.43-1.1zM197.24 188.32a3.76 3.76 0 0 0-1-2.82 4.37 4.37 0 0 0-3-1l-2.38.14-.14 8.12 3.22.14c2.23-.61 3.3-2.13 3.3-4.58zM225.87 228.14a2.7 2.7 0 0 0-2.43 1.12 6.6 6.6 0 0 0-.76 3.6 9.84 9.84 0 0 0 .78 4.59 2.65 2.65 0 0 0 2.51 1.36 2.75 2.75 0 0 0 2.44-1.1 6.65 6.65 0 0 0 .75-3.62 9.68 9.68 0 0 0-.79-4.57 2.67 2.67 0 0 0-2.5-1.38zM184.05 228.07a3.11 3.11 0 0 0-2.28.89 4.66 4.66 0 0 0-1.22 2.57l5.91-.14.07-.49a3.14 3.14 0 0 0-.63-2.12 2.36 2.36 0 0 0-1.85-.71zM166.65 228.84a4.44 4.44 0 0 0-3 1.5v4.06l.07 4a6.29 6.29 0 0 0 2.42.52 3.21 3.21 0 0 0 2.76-1.29 6.46 6.46 0 0 0 1-3.82 7 7 0 0 0-.79-3.69 2.58 2.58 0 0 0-2.46-1.28zM253.38 192.9a3.14 3.14 0 0 0-.63-2.12 2.37 2.37 0 0 0-1.86-.71 3.11 3.11 0 0 0-2.27.89 4.67 4.67 0 0 0-1.23 2.57l5.92-.14z"/><path d="M360.48 154.67a20.66 20.66 0 0 0-2.77-10.26L305.58 54.3A20.58 20.58 0 0 0 287.76 44h-146a20.57 20.57 0 0 0-19.88 15.26L86.34 192.1a20.59 20.59 0 0 0 2 15.6l114.8 199.12a20.59 20.59 0 0 0 32.38 4.28l119.16-119a20.61 20.61 0 0 0 6-14.62zM235.16 180a2.5 2.5 0 0 1 1.88-.7 2.25 2.25 0 0 1 1.69.63 2.4 2.4 0 0 1 .62 1.75 2.66 2.66 0 0 1-.67 1.89 2.76 2.76 0 0 1-3.59.07 2.43 2.43 0 0 1-.61-1.78 2.58 2.58 0 0 1 .68-1.86zm-30.39 7.6l4.41-.39v3.19h.28c1.14-2.1 2.57-3.15 4.27-3.15a7 7 0 0 1 .88.07v4.3l-.49.18a3.27 3.27 0 0 0-1.3-.25c-1.35 0-2.58.88-3.67 2.63v2.2l.24 7.18h-4.69l.28-6.72zm-32.77 52a7.66 7.66 0 0 1-6 2.33 13.74 13.74 0 0 1-2.34-.21l.1 6.33h-4.62l.25-13.19-.21-9.24 4.44-.39v2.38h.24a11.54 11.54 0 0 1 1.89-1.52 10.66 10.66 0 0 1 2-1 5.65 5.65 0 0 1 4.69 2.07 9.13 9.13 0 0 1 1.65 5.84 9.47 9.47 0 0 1-2.09 6.6zm18.43-6.14l-.53.56-9.45.07q.31 4.36 4.45 4.37a11.84 11.84 0 0 0 4.83-1.22l.38.24-.7 3.47a14.56 14.56 0 0 1-5 1 8.07 8.07 0 0 1-6-2.24 8.5 8.5 0 0 1-2.19-6.2 8.73 8.73 0 0 1 2.14-6.21 7.48 7.48 0 0 1 5.77-2.29 6.5 6.5 0 0 1 4.81 1.69 6.39 6.39 0 0 1 1.7 4.75 16 16 0 0 1-.22 2.01zm.52-29.88h-4.76l.24-6.72-.25-15.86h8.65a7.67 7.67 0 0 1 5.44 1.79 6.65 6.65 0 0 1 1.9 5.11 8.71 8.71 0 0 1-1.11 4.46 7.61 7.61 0 0 1-3.21 3 10.7 10.7 0 0 1-4.88 1.05h-2.24v.07zm12.74 26.06l-.49.18a3.26 3.26 0 0 0-1.29-.25c-1.36 0-2.58.88-3.68 2.63v2.2l.25 7.18h-4.66l.28-6.72-.21-9.24 4.41-.39v3.19h.28q1.71-3.15 4.27-3.15a6.73 6.73 0 0 1 .87.07zm11.92 9.57a5.2 5.2 0 0 1-2.19 2 7.85 7.85 0 0 1-3.6.76 14.37 14.37 0 0 1-5.22-1.05l.53-3.64.45-.28a9.1 9.1 0 0 0 2.42 1.45 6.3 6.3 0 0 0 2.34.54 2.14 2.14 0 0 0 1.47-.47 1.5 1.5 0 0 0 .53-1.14 1.4 1.4 0 0 0-.65-1.19 10.76 10.76 0 0 0-2.05-1q-1.44-.63-2.34-1.14a4.57 4.57 0 0 1-1.56-1.45 4.09 4.09 0 0 1-.65-2.35 4.65 4.65 0 0 1 1.72-3.73 7 7 0 0 1 4.65-1.45 12.33 12.33 0 0 1 4.48.81l-.63 3.43-.56.17a9.14 9.14 0 0 0-2-1 5.41 5.41 0 0 0-1.78-.35 1.92 1.92 0 0 0-1.33.43 1.42 1.42 0 0 0 .15 2.26 11.31 11.31 0 0 0 2.05 1 18.34 18.34 0 0 1 2.31 1.08 4.78 4.78 0 0 1 1.56 1.45 4 4 0 0 1 .65 2.3 5 5 0 0 1-.76 2.56zm.15-43.44c0-2.85.68-5 2-6.53a7.46 7.46 0 0 1 5.84-2.25 7 7 0 0 1 5.46 2.1 8.74 8.74 0 0 1 1.89 6c0 2.85-.68 5-2 6.53a7.46 7.46 0 0 1-5.84 2.26 7 7 0 0 1-5.46-2.1 8.72 8.72 0 0 1-1.9-6.01zm15.75 43.9a7.46 7.46 0 0 1-5.84 2.26 7 7 0 0 1-5.46-2.1 8.77 8.77 0 0 1-1.89-6.06c0-2.85.68-5 2-6.53a7.46 7.46 0 0 1 5.84-2.25 7 7 0 0 1 5.46 2.1 8.69 8.69 0 0 1 1.9 6c.02 2.91-.66 5.07-2.02 6.58zM234 210.4l-1.61-2.06v-.42a5.67 5.67 0 0 0 2.24-2.07 6.31 6.31 0 0 0 .66-3.08l.07-5.91-.14-6.62h-2.83l-.28-.28.24-2.52h2.94l4.34-.24.14.1-.28 9.1.21 6.23a7.58 7.58 0 0 1-1.33 4.59 10.72 10.72 0 0 1-4.37 3.18zm12.28 31.18l.28-10.15a2.77 2.77 0 0 0-.54-1.91 2 2 0 0 0-1.66-.68 5.33 5.33 0 0 0-3.36 1.5v4.06l.21 7.18h-4.66l.24-6.72-.17-9.24 4.41-.39v2.38h.25a11.77 11.77 0 0 1 4.19-2.52 6 6 0 0 1 4.07 1.21 4.18 4.18 0 0 1 1.33 3.48l-.11 4.66.21 7.14zm-1-39.89a8.5 8.5 0 0 1-2.19-6.2 8.73 8.73 0 0 1 2.14-6.21 7.48 7.48 0 0 1 5.77-2.29 5.9 5.9 0 0 1 6.51 6.44 14.58 14.58 0 0 1-.18 2l-.52.56-9.45.07q.32 4.36 4.45 4.37a11.76 11.76 0 0 0 4.82-1.22l.39.24-.7 3.47a14.56 14.56 0 0 1-5 1 8.07 8.07 0 0 1-6.11-2.23zm19.33 39.89l.28-10.15a2.68 2.68 0 0 0-.54-1.91 2 2 0 0 0-1.66-.68 5.37 5.37 0 0 0-3.36 1.5v4.06l.21 7.18h-4.66l.25-6.72-.18-9.24 4.41-.39v2.38h.25a11.72 11.72 0 0 1 4.2-2.52 6 6 0 0 1 4.06 1.21 4.15 4.15 0 0 1 1.33 3.48l-.11 4.66.21 7.14zm1.3-41.91a1.78 1.78 0 0 0 1.4.48 5.28 5.28 0 0 0 2.34-.6l.39.35-.46 2.77a10.72 10.72 0 0 1-3.64 1.12q-4.72-.49-4.72-4.62l.17-2.91v-6h-2.17l-.18-.24.25-2.56h2.06v-2.69l4.24-1.37.31.28-.1 3.78h4.16l.14.25-.21 2.55h-4.16l-.21 7.84a2.37 2.37 0 0 0 .32 1.57zm12.34-1.52a10.76 10.76 0 0 0-2.05-1c-1-.42-1.74-.8-2.35-1.14a4.64 4.64 0 0 1-1.55-1.45 4 4 0 0 1-.65-2.35 4.67 4.67 0 0 1 1.71-3.73A7 7 0 0 1 278 187a12.33 12.33 0 0 1 4.48.81l-.63 3.43-.56.17a9.14 9.14 0 0 0-2-1 5.41 5.41 0 0 0-1.79-.35 1.94 1.94 0 0 0-1.33.43 1.42 1.42 0 0 0-.49 1.07 1.4 1.4 0 0 0 .65 1.19 11.31 11.31 0 0 0 2.05 1 18.34 18.34 0 0 1 2.31 1.08 4.78 4.78 0 0 1 1.56 1.45 3.94 3.94 0 0 1 .64 2.3 5 5 0 0 1-.71 2.6 5.2 5.2 0 0 1-2.19 2 7.87 7.87 0 0 1-3.61.76 14.32 14.32 0 0 1-5.21-1.05l.52-3.64.46-.28a9.21 9.21 0 0 0 2.41 1.45 6.39 6.39 0 0 0 2.35.54 2.14 2.14 0 0 0 1.47-.47 1.49 1.49 0 0 0 .52-1.14 1.39 1.39 0 0 0-.72-1.2zm8.27 35.31l-.52.56-9.45.07q.31 4.36 4.44 4.37a11.77 11.77 0 0 0 4.83-1.22l.39.24-.7 3.47a14.57 14.57 0 0 1-5 1 8 8 0 0 1-6-2.24 8.5 8.5 0 0 1-2.19-6.2 8.77 8.77 0 0 1 2.13-6.21 7.52 7.52 0 0 1 5.78-2.29 5.9 5.9 0 0 1 6.51 6.44 14.58 14.58 0 0 1-.29 2.01zm8.05 8.12h-4.65l.24-6.76-.21-17.46 4.66-.35-.28 17.39zm14-2.37a5.2 5.2 0 0 1-2.19 2 7.85 7.85 0 0 1-3.6.76 14.37 14.37 0 0 1-5.22-1.05l.53-3.64.45-.28a9.26 9.26 0 0 0 2.42 1.45 6.34 6.34 0 0 0 2.34.54 2.14 2.14 0 0 0 1.47-.47 1.5 1.5 0 0 0 .53-1.14 1.4 1.4 0 0 0-.65-1.19 10.46 10.46 0 0 0-2.05-1c-.95-.42-1.74-.8-2.34-1.14a4.57 4.57 0 0 1-1.56-1.45 4.09 4.09 0 0 1-.65-2.35 4.68 4.68 0 0 1 1.72-3.73 7 7 0 0 1 4.65-1.45 12.33 12.33 0 0 1 4.48.81l-.63 3.43-.56.17a8.93 8.93 0 0 0-2-1 5.36 5.36 0 0 0-1.78-.35 1.92 1.92 0 0 0-1.33.43 1.41 1.41 0 0 0 .16 2.26 11.15 11.15 0 0 0 2 1 17.09 17.09 0 0 1 2.31 1.08 4.78 4.78 0 0 1 1.56 1.45 4 4 0 0 1 .65 2.3 5 5 0 0 1-.76 2.56z"/><path d="M280.08 228.07a3.09 3.09 0 0 0-2.27.89 4.67 4.67 0 0 0-1.23 2.57l5.92-.14.07-.49a3.14 3.14 0 0 0-.63-2.12 2.37 2.37 0 0 0-1.86-.71z"/></g></svg>