<svg xmlns="http://www.w3.org/2000/svg" viewBox="0 0 445.52 446.41"><g data-name="Calque 2"><path d="M268.19 235.54a1.62 1.62 0 0 0-.26 1 1.94 1.94 0 0 0 .49 1.41 1.81 1.81 0 0 0 1.37.51 4.18 4.18 0 0 0 2.87-1.61l.06-2.59-3.71.81a1.47 1.47 0 0 0-.82.47zM289.21 228.84a4.44 4.44 0 0 0-3 1.5v4.06l.07 4a6.25 6.25 0 0 0 2.42.52 3.21 3.21 0 0 0 2.76-1.29 6.46 6.46 0 0 0 .95-3.82 7 7 0 0 0-.79-3.69 2.58 2.58 0 0 0-2.41-1.28zM326.12 195.46a3 3 0 0 0 2.17-.74 2.88 2.88 0 0 0 .73-2.13c0-1.78-.91-2.66-2.73-2.66s-2.94.89-2.94 2.69a2.92 2.92 0 0 0 .7 2.12 2.77 2.77 0 0 0 2.07.72zM267.07 200.15q5.56 0 5.57-7.6 0-4.12-1.35-6a4.84 4.84 0 0 0-4.22-1.87c-1.23 0-2.55 0-3.95.17l-.21 11.59.1 3.46c1.64.16 2.99.25 4.06.25zM328.83 204.21a14.85 14.85 0 0 0-3.06-.6l-1.19-.17a5.47 5.47 0 0 0-1.26 1.08 1.76 1.76 0 0 0-.42 1.12 1.69 1.69 0 0 0 .84 1.47 4.44 4.44 0 0 0 2.45.56 5.22 5.22 0 0 0 2.64-.58 1.77 1.77 0 0 0 1-1.59 1.3 1.3 0 0 0-1-1.29zM289.79 192.9a3.14 3.14 0 0 0-.63-2.12 2.37 2.37 0 0 0-1.86-.71 3.07 3.07 0 0 0-2.3.93 4.67 4.67 0 0 0-1.23 2.57l5.92-.14zM370.83 228.07a3.11 3.11 0 0 0-2.28.89 4.73 4.73 0 0 0-1.22 2.57l5.91-.14.07-.49a3.14 3.14 0 0 0-.63-2.12 2.36 2.36 0 0 0-1.85-.71z"/><path d="M388.87 267.41a9 9 0 0 1-.26-2L387.13 141a8.82 8.82 0 0 0-.39-2.5l-35-113.69c-2.36-7.67-13.7-10-20.67-4.31l-73.79 60.58a10.65 10.65 0 0 0-3.87 6.28l-45.49 249.48a9.27 9.27 0 0 0 3.54 9L317.9 431a14 14 0 0 0 12.45 2.15L412 409.33c6.23-1.82 10-7.28 8.69-12.59zM311.15 180a2.5 2.5 0 0 1 1.88-.7 2.23 2.23 0 0 1 1.69.63 2.4 2.4 0 0 1 .62 1.75 2.62 2.62 0 0 1-.67 1.89 2.76 2.76 0 0 1-3.59.07 2.48 2.48 0 0 1-.61-1.78 2.58 2.58 0 0 1 .68-1.86zm-8.4 18.13a10.62 10.62 0 0 0-2-1c-1-.42-1.74-.8-2.35-1.14a4.76 4.76 0 0 1-1.56-1.45 4.09 4.09 0 0 1-.64-2.35 4.67 4.67 0 0 1 1.71-3.73 7 7 0 0 1 4.66-1.45 12.37 12.37 0 0 1 4.48.81l-.63 3.43-.56.17a9.36 9.36 0 0 0-2-1 5.41 5.41 0 0 0-1.79-.35 1.94 1.94 0 0 0-1.33.43 1.42 1.42 0 0 0-.49 1.07 1.4 1.4 0 0 0 .65 1.19 11 11 0 0 0 2.05 1 18.34 18.34 0 0 1 2.31 1.08 5 5 0 0 1 1.56 1.45 3.94 3.94 0 0 1 .64 2.3 5 5 0 0 1-.72 2.6 5.11 5.11 0 0 1-2.18 2 7.87 7.87 0 0 1-3.61.76 14.28 14.28 0 0 1-5.21-1.05l.52-3.64.46-.28a9.21 9.21 0 0 0 2.41 1.45 6.39 6.39 0 0 0 2.35.54 2.14 2.14 0 0 0 1.47-.47 1.49 1.49 0 0 0 .52-1.14 1.37 1.37 0 0 0-.72-1.21zm-21.19-8.87a7.52 7.52 0 0 1 5.78-2.29 5.9 5.9 0 0 1 6.51 6.44 14.58 14.58 0 0 1-.18 2l-.52.56-9.45.07q.32 4.36 4.44 4.37a11.77 11.77 0 0 0 4.83-1.22l.39.24-.7 3.47a14.61 14.61 0 0 1-5 1 8 8 0 0 1-6-2.24 8.5 8.5 0 0 1-2.19-6.2 8.77 8.77 0 0 1 2.09-6.18zm-23.2-8.26l9.06-.14q4.9 0 7.53 2.73t2.62 7.84q0 6-2.94 9.17t-8.4 3.18c-1.09 0-2.41 0-3.93-.07s-2.85-.1-3.94-.17l.24-6.72zm-21.11 54a4.46 4.46 0 0 0 1.91 2.39 6.81 6.81 0 0 0 3.43.76A8.58 8.58 0 0 0 244 238a14.69 14.69 0 0 0 1.6-.38l.07-1.93-.07-3.57 4.37-.31-.11 3.15.11 5.49a24.71 24.71 0 0 1-7.73 1.4c-3.5 0-6.14-1-7.9-2.87s-2.64-4.65-2.64-8.22q0-5.85 3.06-9t8.7-3.09a15.58 15.58 0 0 1 6.62 1.36l-1 4.27-.45.07a17.85 17.85 0 0 0-3.07-1.42 9.35 9.35 0 0 0-2.89-.43 5.36 5.36 0 0 0-4.54 1.85q-1.44 1.86-1.44 6.09a13.08 13.08 0 0 0 .56 4.54zm25.68-5.36l-.49.18a3.27 3.27 0 0 0-1.3-.25c-1.35 0-2.58.88-3.67 2.63v2.2l.24 7.18h-4.65l.28-6.72-.21-9.24 4.41-.39v3.19h.28c1.14-2.1 2.57-3.15 4.27-3.15a7 7 0 0 1 .88.07zM278.29 241a5.67 5.67 0 0 1-2.55.88 2.87 2.87 0 0 1-1.75-.76 3.26 3.26 0 0 1-.95-1.8h-.25a10.09 10.09 0 0 1-3.6 2.59 5.79 5.79 0 0 1-3.95-1.33 4.5 4.5 0 0 1-1.44-3.58 4 4 0 0 1 .89-2.75 4.68 4.68 0 0 1 2.72-1.35l5.35-1v-1.44a2 2 0 0 0-2.24-2.27 6 6 0 0 0-2.29.49 14 14 0 0 0-2.72 1.54l-.34-.21-.53-3.08a13 13 0 0 1 3.22-1.46 12 12 0 0 1 3.43-.5 6.66 6.66 0 0 1 4.22 1.2 4.09 4.09 0 0 1 1.52 3.38q0 .63-.21 4c0 .65-.06 1.33-.11 2s-.07 1.28-.07 1.77a1.36 1.36 0 0 0 .18.82.77.77 0 0 0 .63.23 4.12 4.12 0 0 0 .91-.14l.35.28zm16.26-1.38a7.66 7.66 0 0 1-6 2.33 13.74 13.74 0 0 1-2.34-.21l.1 6.33h-4.62l.24-13.19-.21-9.24 4.45-.39v2.38h.24a11.54 11.54 0 0 1 1.89-1.52 10.66 10.66 0 0 1 2-1 5.65 5.65 0 0 1 4.69 2.07 9.13 9.13 0 0 1 1.65 5.84 9.47 9.47 0 0 1-2.09 6.58zm15.2 2l.25-10.15a2.78 2.78 0 0 0-.53-1.93 2 2 0 0 0-1.64-.66 5.37 5.37 0 0 0-3.36 1.5l-.07 4.06.24 7.18H300l.24-6.76-.24-17.5 4.66-.35-.18 10.6h.21a11.79 11.79 0 0 1 4.24-2.52 6 6 0 0 1 4 1.21 4.28 4.28 0 0 1 1.35 3.48l-.11 4.66.18 7.14zm.83-38l.24-6.72-.17-9.24 4.58-.39-.23 9.13.21 7.18zm12.65 38h-4.66l.25-6.72-.18-9.24 4.59-.39-.23 9.13zm-.56-20a2.76 2.76 0 0 1-3.59.07 2.43 2.43 0 0 1-.61-1.78 2.58 2.58 0 0 1 .68-1.86 2.49 2.49 0 0 1 1.87-.7 2.26 2.26 0 0 1 1.7.63 2.39 2.39 0 0 1 .61 1.75 2.65 2.65 0 0 1-.66 1.86zm-1.84-12.48a4.11 4.11 0 0 1-1.71-3.43 9.88 9.88 0 0 1 2.9-2.63v-.17a4.26 4.26 0 0 1-1.85-1.18 2.89 2.89 0 0 1-.67-2 11 11 0 0 1 2.38-2.13v-.18a4.91 4.91 0 0 1-1.91-1.84 5.3 5.3 0 0 1-.64-2.67 5.2 5.2 0 0 1 1.89-4.27 7.88 7.88 0 0 1 5.14-1.54 9 9 0 0 1 3.43.63 32.73 32.73 0 0 0 5.15-1.4l.35.31v2.91c-.63.16-1.53.33-2.7.52l-.07.14a5.51 5.51 0 0 1-1.38 6.53 7.9 7.9 0 0 1-5.16 1.56 12 12 0 0 1-2-.18 2.82 2.82 0 0 0-.42.49.82.82 0 0 0-.11.42c0 .42.28.71.84.88a21.9 21.9 0 0 0 2.66.49 27.64 27.64 0 0 1 3.45.59 5.59 5.59 0 0 1 2.38 1.23 3.14 3.14 0 0 1 1 2.48 4.67 4.67 0 0 1-1 3 6.69 6.69 0 0 1-2.85 2 10.94 10.94 0 0 1-4.13.73 8 8 0 0 1-4.97-1.32zm20.63 38.94h-4.62l.21-7.35v-.87h-.28a12.91 12.91 0 0 1-3.15 2 6.51 6.51 0 0 1-5.25-2.19 9 9 0 0 1-1.85-6q0-4.17 2.17-6.39a7.75 7.75 0 0 1 5.81-2.28 13.5 13.5 0 0 1 4.2.77l2.41-.77.39.21-.28 9.17zm-4.32-44.47l.25-6.72-.18-9.24 4.41-.39v2.38h.25a11.72 11.72 0 0 1 4.2-2.52 6 6 0 0 1 4.06 1.21 4.18 4.18 0 0 1 1.33 3.48l-.11 4.66.21 7.14h-4.69l.28-10.15a2.77 2.77 0 0 0-.54-1.91 2 2 0 0 0-1.66-.68 5.37 5.37 0 0 0-3.36 1.5v4.06l.21 7.18zM360.92 241a5.14 5.14 0 0 1-2.66.88 3.24 3.24 0 0 1-1.68-.81 4 4 0 0 1-1-1.82h-.32a9.65 9.65 0 0 1-4.13 2.56 6 6 0 0 1-4-1.21 4.31 4.31 0 0 1-1.35-3.48l.07-4.13-.17-7.35 4.51-.39-.1 10.33a2.72 2.72 0 0 0 .49 1.85 1.92 1.92 0 0 0 1.57.63 4.54 4.54 0 0 0 3-1.36v-11.08l4.44-.39-.31 12.11a1.34 1.34 0 0 0 .19.81.74.74 0 0 0 .61.24 4.19 4.19 0 0 0 .95-.14l.31.28zm16.28-7.52l-.53.56-9.45.07c.21 2.91 1.7 4.37 4.45 4.37a11.8 11.8 0 0 0 4.83-1.22l.38.24-.7 3.47a14.56 14.56 0 0 1-5 1 8.07 8.07 0 0 1-6-2.24 8.5 8.5 0 0 1-2.19-6.2 8.77 8.77 0 0 1 2.14-6.21 7.5 7.5 0 0 1 5.77-2.29 6.54 6.54 0 0 1 4.82 1.69 6.43 6.43 0 0 1 1.69 4.75 14.35 14.35 0 0 1-.21 1.99z"/><path d="M334.36 228.17q-3.47 0-3.47 4.62a7.91 7.91 0 0 0 .83 4 2.61 2.61 0 0 0 2.39 1.38 3.48 3.48 0 0 0 1.46-.33 5.43 5.43 0 0 0 1.48-1.1v-1.86l-.11-6a5.65 5.65 0 0 0-2.58-.71z"/></g></svg>