<svg xmlns="http://www.w3.org/2000/svg" viewBox="0 0 446.41 446.41"><g data-name="Calque 2"><path d="M208.82 222.5l-2.38.14-.14 7.67 3.46.14a4.15 4.15 0 0 0 3-4.31 3.46 3.46 0 0 0-1-2.68 4.49 4.49 0 0 0-2.94-.96zM221.54 190.07a3.07 3.07 0 0 0-2.27.89 4.67 4.67 0 0 0-1.23 2.57l5.92-.14.07-.49a3.14 3.14 0 0 0-.63-2.12 2.37 2.37 0 0 0-1.86-.71zM250.75 228.14a2.72 2.72 0 0 0-2.44 1.12 6.61 6.61 0 0 0-.75 3.6 10 10 0 0 0 .77 4.59 2.66 2.66 0 0 0 2.52 1.36 2.74 2.74 0 0 0 2.43-1.1 6.63 6.63 0 0 0 .76-3.62 9.8 9.8 0 0 0-.79-4.57 2.68 2.68 0 0 0-2.5-1.38zM273.76 190.14a2.7 2.7 0 0 0-2.43 1.12 6.51 6.51 0 0 0-.76 3.6 10 10 0 0 0 .77 4.59 2.68 2.68 0 0 0 2.52 1.36 2.77 2.77 0 0 0 2.44-1.1 6.65 6.65 0 0 0 .75-3.62 9.68 9.68 0 0 0-.79-4.57 2.67 2.67 0 0 0-2.5-1.38z"/><path d="M413.32 106.57a8.1 8.1 0 0 0-4.51-12.13L282.24 56.68a8 8 0 0 0-6.7 1l-88.61 57.12a8.13 8.13 0 0 1-6.7 1l-136-40.47a8.1 8.1 0 0 0-9.51 11.48l57.75 111.81a8.11 8.11 0 0 1 0 7.44L44.1 299.47a8.09 8.09 0 0 0 1.16 9.13l75.83 84.77a8.09 8.09 0 0 0 12.07 0L219 297.41a8.08 8.08 0 0 1 8.35-2.36l151.83 45.21a8.1 8.1 0 0 0 10.21-9.59l-31-133.82a8.06 8.06 0 0 1 1.07-6.2zm-261.64 97h-4.76l.25-6.72-.25-15.85h4.83l-.28 15.4zm24.26 0l.28-10.15c0-1.73-.74-2.59-2.21-2.59a5.25 5.25 0 0 0-3.29 1.4l-.1 4.2.21 7.14h-4.66l.28-10.15a2.78 2.78 0 0 0-.54-1.93 2.1 2.1 0 0 0-1.66-.66 5.68 5.68 0 0 0-3.4 1.47v4.09l.21 7.18h-4.62l.25-6.72-.18-9.24 4.38-.39v2.38h.24a11.71 11.71 0 0 1 4.24-2.52q3.91 0 5 2.63h.21a11.42 11.42 0 0 1 4.55-2.63 6 6 0 0 1 4 1.21 4.18 4.18 0 0 1 1.32 3.48l-.11 4.66.21 7.14zm74.49-5.43a10.62 10.62 0 0 0-2-1c-1-.42-1.74-.8-2.35-1.14a4.57 4.57 0 0 1-1.56-1.45 4.09 4.09 0 0 1-.65-2.35 4.68 4.68 0 0 1 1.72-3.73 7 7 0 0 1 4.61-1.47 12.42 12.42 0 0 1 4.49.81l-.63 3.43-.57.17a9.08 9.08 0 0 0-2-1 5.46 5.46 0 0 0-1.79-.35 1.94 1.94 0 0 0-1.33.43 1.41 1.41 0 0 0 .16 2.26 11 11 0 0 0 2.05 1 17.5 17.5 0 0 1 2.3 1.08 4.78 4.78 0 0 1 1.56 1.45 4 4 0 0 1 .65 2.3 5 5 0 0 1-.72 2.6 5.14 5.14 0 0 1-2.19 2 7.82 7.82 0 0 1-3.6.76 14.28 14.28 0 0 1-5.21-1.05l.52-3.64.45-.28a9.26 9.26 0 0 0 2.42 1.45 6.38 6.38 0 0 0 2.34.54 2.17 2.17 0 0 0 1.48-.47 1.52 1.52 0 0 0 .52-1.14 1.4 1.4 0 0 0-.67-1.2zm-47.75-10.53l4.41-.39v3.19h.28c1.14-2.1 2.57-3.15 4.27-3.15a7 7 0 0 1 .88.07v4.3l-.49.18a3.27 3.27 0 0 0-1.3-.25c-1.35 0-2.58.88-3.67 2.63v2.2l.24 7.18h-4.65l.28-6.72zm-5.17 14a7.66 7.66 0 0 1-6 2.33 13.94 13.94 0 0 1-2.35-.21l.11 6.33h-4.62l.24-13.19-.21-9.24 4.45-.39v2.38h.25a11.54 11.54 0 0 1 1.89-1.52 10.37 10.37 0 0 1 2-1 5.65 5.65 0 0 1 4.69 2.07 9.19 9.19 0 0 1 1.64 5.84c.03 2.84-.67 5.04-2.09 6.59zM218.86 241a17 17 0 0 1-4.65 1l-.49-.39q-2.52-4.33-4.1-7.56h-3.39v.46l.21 7.14h-4.76l.24-6.72-.24-15.93h8.64a7.9 7.9 0 0 1 5.46 1.73 6.32 6.32 0 0 1 1.93 5 7.43 7.43 0 0 1-1.11 4 8.54 8.54 0 0 1-3.09 3q2.73 4.33 5.42 7.84zm7.6.6h-4.66l.25-6.72-.18-9.24 4.59-.39-.21 9.17zm-.56-20a2.39 2.39 0 0 1-1.82.7 2.36 2.36 0 0 1-1.77-.63 2.43 2.43 0 0 1-.61-1.78 2.54 2.54 0 0 1 .68-1.86 2.47 2.47 0 0 1 1.87-.7 2.27 2.27 0 0 1 1.7.63 2.39 2.39 0 0 1 .61 1.75 2.65 2.65 0 0 1-.66 1.88zm2-26.13l-.52.56-9.45.07q.31 4.36 4.44 4.37a11.77 11.77 0 0 0 4.83-1.22l.39.24-.7 3.47a14.66 14.66 0 0 1-5 1 8.07 8.07 0 0 1-6-2.24 8.54 8.54 0 0 1-2.18-6.2 8.77 8.77 0 0 1 2.13-6.21 7.5 7.5 0 0 1 5.78-2.29 6.51 6.51 0 0 1 4.81 1.69 6.43 6.43 0 0 1 1.7 4.75 14.58 14.58 0 0 1-.22 2zm12.56 43.75a5.17 5.17 0 0 1-2.18 2 7.9 7.9 0 0 1-3.61.76 14.28 14.28 0 0 1-5.21-1.05l.52-3.64.46-.28a9 9 0 0 0 2.41 1.45 6.39 6.39 0 0 0 2.35.54 2.14 2.14 0 0 0 1.47-.47 1.49 1.49 0 0 0 .52-1.14 1.4 1.4 0 0 0-.65-1.19 10.62 10.62 0 0 0-2-1c-1-.42-1.74-.8-2.35-1.14a4.57 4.57 0 0 1-1.56-1.45 4.09 4.09 0 0 1-.64-2.35 4.67 4.67 0 0 1 1.71-3.73 7 7 0 0 1 4.66-1.45 12.37 12.37 0 0 1 4.48.81l-.63 3.43-.56.17a9.36 9.36 0 0 0-2-1 5.46 5.46 0 0 0-1.79-.35 1.94 1.94 0 0 0-1.33.43 1.41 1.41 0 0 0 .16 2.26 11 11 0 0 0 2.05 1 18.34 18.34 0 0 1 2.31 1.08 4.85 4.85 0 0 1 1.55 1.45 3.88 3.88 0 0 1 .65 2.3 5 5 0 0 1-.78 2.55zm.44-38a5.17 5.17 0 0 1-2.18 2 7.9 7.9 0 0 1-3.61.76 14.28 14.28 0 0 1-5.21-1.05l.52-3.64.46-.28a9 9 0 0 0 2.41 1.45 6.39 6.39 0 0 0 2.35.54 2.14 2.14 0 0 0 1.47-.47 1.49 1.49 0 0 0 .52-1.14 1.4 1.4 0 0 0-.65-1.19 10.62 10.62 0 0 0-2-1c-1-.42-1.74-.8-2.35-1.14a4.57 4.57 0 0 1-1.56-1.45 4.09 4.09 0 0 1-.64-2.35 4.67 4.67 0 0 1 1.71-3.73 7 7 0 0 1 4.66-1.45 12.37 12.37 0 0 1 4.48.81l-.63 3.43-.56.17a9.36 9.36 0 0 0-2-1 5.46 5.46 0 0 0-1.79-.35 1.94 1.94 0 0 0-1.33.43 1.41 1.41 0 0 0 .16 2.26 11 11 0 0 0 2.05 1 18.34 18.34 0 0 1 2.31 1.08 4.85 4.85 0 0 1 1.55 1.45 4 4 0 0 1 .65 2.3 5 5 0 0 1-.78 2.55zm15.47 38.46a7.46 7.46 0 0 1-5.84 2.26 7 7 0 0 1-5.46-2.1 8.77 8.77 0 0 1-1.89-6.06c0-2.85.67-5 2-6.53a7.46 7.46 0 0 1 5.84-2.25 7 7 0 0 1 5.46 2.1 8.74 8.74 0 0 1 1.89 6c.04 2.9-.64 5.06-1.99 6.57zm6.53-36.09h-4.66l.25-6.72-.18-9.24 4.59-.39-.21 9.17zm-.56-20a2.76 2.76 0 0 1-3.59.07 2.43 2.43 0 0 1-.61-1.78 2.58 2.58 0 0 1 .68-1.86 2.49 2.49 0 0 1 1.87-.7 2.26 2.26 0 0 1 1.7.63 2.39 2.39 0 0 1 .61 1.75 2.65 2.65 0 0 1-.65 1.89zm17 18.08a7.46 7.46 0 0 1-5.84 2.26 7 7 0 0 1-5.46-2.1 8.77 8.77 0 0 1-1.89-6.06c0-2.85.68-5 2-6.53a7.46 7.46 0 0 1 5.84-2.25 7 7 0 0 1 5.46 2.1 8.74 8.74 0 0 1 1.89 6c.08 2.91-.59 5.07-1.95 6.58zm14.74 1.91l.28-10.15a2.77 2.77 0 0 0-.54-1.91 2.05 2.05 0 0 0-1.67-.68 5.37 5.37 0 0 0-3.36 1.5v4.06l.21 7.18h-4.6l.24-6.72-.17-9.24 4.41-.39v2.38h.24a11.9 11.9 0 0 1 4.2-2.52 6 6 0 0 1 4.06 1.21 4.12 4.12 0 0 1 1.33 3.48l-.1 4.66.21 7.14zm18.39-2.37a5.2 5.2 0 0 1-2.19 2 7.85 7.85 0 0 1-3.6.76 14.37 14.37 0 0 1-5.22-1.05l.53-3.64.45-.28a9.26 9.26 0 0 0 2.42 1.45 6.38 6.38 0 0 0 2.34.54 2.14 2.14 0 0 0 1.47-.47 1.5 1.5 0 0 0 .53-1.14 1.4 1.4 0 0 0-.65-1.19 10.46 10.46 0 0 0-2.05-1q-1.43-.63-2.34-1.14a4.57 4.57 0 0 1-1.56-1.45 4.09 4.09 0 0 1-.65-2.35 4.68 4.68 0 0 1 1.72-3.73 7 7 0 0 1 4.65-1.45 12.33 12.33 0 0 1 4.48.81l-.63 3.43-.56.17a8.93 8.93 0 0 0-2-1 5.36 5.36 0 0 0-1.78-.35 1.94 1.94 0 0 0-1.33.43 1.41 1.41 0 0 0 .16 2.26 11.15 11.15 0 0 0 2 1 17.09 17.09 0 0 1 2.31 1.08 4.78 4.78 0 0 1 1.56 1.45 4 4 0 0 1 .65 2.3 5 5 0 0 1-.66 2.56z"/><path d="M192.18 190.84a4.46 4.46 0 0 0-3.05 1.5v4.06l.07 4a6.24 6.24 0 0 0 2.41.52 3.23 3.23 0 0 0 2.77-1.29 6.47 6.47 0 0 0 .94-3.82 6.93 6.93 0 0 0-.79-3.69 2.56 2.56 0 0 0-2.35-1.28z"/></g></svg>