<svg xmlns="http://www.w3.org/2000/svg" viewBox="0 0 63.69 63.69">
  <g data-name="Calque 2">
    <path d="M31.85 5.74c8.5 0 9.51 0 12.87.18A17.7 17.7 0 0 1 50.63 7a9.87 9.87 0 0 1 3.66 2.4 10 10 0 0 1 2.38 3.66 17.52 17.52 0 0 1 1.1 5.94c.15 3.36.18 4.36.18 12.87s0 9.51-.18 12.87a17.44 17.44 0 0 1-1.1 5.91 10.53 10.53 0 0 1-6 6 17.44 17.44 0 0 1-5.91 1.1c-3.36.15-4.37.18-12.87.18s-9.51 0-12.87-.18a17.52 17.52 0 0 1-5.92-1.1 10 10 0 0 1-3.7-2.36A9.87 9.87 0 0 1 7 50.63a17.7 17.7 0 0 1-1.1-5.91c-.15-3.36-.18-4.37-.18-12.87s0-9.51.18-12.87A17.78 17.78 0 0 1 7 13.06a10.53 10.53 0 0 1 6-6 17.78 17.78 0 0 1 6-1.14c3.36-.15 4.36-.18 12.87-.18m0-5.74c-8.67 0-9.76 0-13.15.19A23.41 23.41 0 0 0 11 1.67a15.53 15.53 0 0 0-5.65 3.68A15.53 15.53 0 0 0 1.67 11a23.41 23.41 0 0 0-1.48 7.72C0 22.11 0 23.2 0 31.85S0 41.58.19 45a23.46 23.46 0 0 0 1.48 7.73A16.31 16.31 0 0 0 11 62a23.15 23.15 0 0 0 7.73 1.48c3.39.16 4.48.19 13.13.19s9.73 0 13.13-.19A23.21 23.21 0 0 0 52.71 62 16.25 16.25 0 0 0 62 52.71 23.21 23.21 0 0 0 63.5 45c.16-3.4.19-4.48.19-13.13s0-9.74-.19-13.13A23.15 23.15 0 0 0 62 11a16.31 16.31 0 0 0-9.31-9.32A23.46 23.46 0 0 0 45 .19C41.58 0 40.5 0 31.85 0z"/>
    <path d="M31.85 15.49A16.36 16.36 0 1 0 48.2 31.85a16.35 16.35 0 0 0-16.35-16.36zm0 27a10.62 10.62 0 1 1 10.61-10.64 10.61 10.61 0 0 1-10.61 10.61z"/>
    <circle cx="48.85" cy="14.85" r="3.82"/>
  </g>
</svg>
