<svg xmlns="http://www.w3.org/2000/svg" viewBox="0 0 198.95 103.8"><title>Fichier 6</title><g id="Calque_2" data-name="Calque 2"><g id="Calque_5" data-name="Calque 5"><path d="M17.46,89.17l9,11.1a.81.81,0,0,0,1.25,0l9.61-11.75a.81.81,0,0,1,1.41.36l1.67,12.05a.8.8,0,0,0,1.4.36l6.35-7.79a.81.81,0,0,1,1.25,0l4,5.06a.8.8,0,0,0,1.41-.35L56.74,85a.77.77,0,0,1,.3-.49l7.72-5.57a.72.72,0,0,0,.25-.87L54.2,53.34a.77.77,0,0,0-.63-.45L41.1,51.34a.76.76,0,0,0-.88.84l2,14.31a.75.75,0,0,1-.67.84L21.08,69.88a.74.74,0,0,0-.52,1.19l7.15,8.79a.71.71,0,0,1-.14,1l-10,7.23A.71.71,0,0,0,17.46,89.17Z"/><path d="M68.46,23.37,43.78,15.26a.63.63,0,0,1-.4-.45L40.39.48A.6.6,0,0,0,39.24.41L34.35,15a.57.57,0,0,0,0,.46L46.46,39.33a.74.74,0,0,0,.2.23L59.3,47.88a.59.59,0,0,0,.9-.31l3-9.26a.6.6,0,0,0-.24-.68l-8-5.24a.61.61,0,0,1,.06-1l13.49-6.88A.6.6,0,0,0,68.46,23.37Z"/><path d="M7.44,8.93l-6.92,11A3.25,3.25,0,0,0,0,21.55l0,2.17a3,3,0,0,0,.29,1.36l4,8.65A3.21,3.21,0,0,1,4.39,36L1.61,45.33a3.17,3.17,0,0,0,.55,2.88L13.43,62.5A3.2,3.2,0,0,0,16,63.72l17.88-.25c1.68,0,4-.91,4-3L38.45,42a3.11,3.11,0,0,0-.18-1.13l-4-11.4L29.88,17.92a3.18,3.18,0,0,0-1.54-1.71L11.57,7.78A3.19,3.19,0,0,0,7.44,8.93Z"/><path d="M141.75,58.73c11.2,13-1.79,24.05-5.39,26.73H136l0,0c5.24-5.61-1.26-17.13-1.26-17.13-2.88-6.59.64-9.46.64-9.46-5.82,1.68-8-.28-8-.28-4.85,4.59,3.77,16,3.77,16,2.9,4.17,1.28,9.81.08,12.77-2,3.85-12.43,13.31-16,13.11a4,4,0,0,1-4-2c-.47-1-.85-2.21.22-4.55.16-.35-3.76,1.78-4.5,3.56-.88,2.11.36,4.36,1.7,5.48,2.07,1.74,7.24.55,9.24-.57L142.2,85.93h0a9.15,9.15,0,0,0,.83-.53c5-3.63,7.43-9.35,8.63-13.25C156.34,56.78,141.75,58.73,141.75,58.73Z"/><path d="M168,58.51a14.21,14.21,0,1,0,13.79,14.2A14,14,0,0,0,168,58.51Zm1.64,25.87c-4.06.54-8.09-4.24-9-10.68s1.64-12.11,5.71-12.66,8.09,4.24,9,10.68S173.75,83.83,169.68,84.38Z"/><path d="M84.3,54.83c6,0,9.86-3.13,9.72-3.94-.17-1,.09-1.56-.62-.92-.48.45-1.73,2.12-7.24,2.12s-9.34-5.57-9.34-10.43S79.05,29.54,84,29.54c4.1,0,4.81,3.1,4.94,4.12a.58.58,0,0,0,0,.18c-.11,1.43-.33,1.54-.33,1.54l1.43.94c.13-.4.63-1,2.26-2.08a6,6,0,0,1,2.57-1.11l.11-1.41A6.54,6.54,0,0,1,92.51,30S89.93,26.51,84,26.51,70.78,32.43,70.78,40.78C70.78,51.39,78.47,54.83,84.3,54.83Z"/><path d="M97.32,24.94V47.82c0,4.75-1.58,6-1.58,6l.78,1a7,7,0,0,1,3.64-.7,9,9,0,0,1,3.64.7l.77-1s-1.58-1.23-1.58-6h0V18.46h0c0-4.09,1.81-5.6,1.81-5.6l-1.29-1.37a46.21,46.21,0,0,1-7.77,5v1.77S97.32,18.51,97.32,24.94Z"/><path d="M118,43.67l1.75-1.47s-1.42-3-6-3-7.47,4.14-7.47,7.91,2.29,7.68,7.68,7.68a9.66,9.66,0,0,0,8-4.57s-.25,3,1.15,3.82c2.57,1.55,7.58-.29,7.58-.29V51.52s-3,.88-3-1.37,0-11.13,0-16.15-3.22-7.49-9.55-7.49a12.08,12.08,0,0,0-9.58,4.83l2.62,2.29S114,29.92,118,29.92s4,4,4,4l0,11.14s-2.84,5.68-6.77,5.61c-4.19-.07-4.57-4.86-2.41-7S118,43.67,118,43.67Z"/><path d="M134,47.75c0,4.75-1.58,6-1.58,6l.77,1a7,7,0,0,1,3.64-.7,8.85,8.85,0,0,1,3.64.7l.78-1s-1.58-1.23-1.58-6v-17a3.88,3.88,0,0,1,1.81-3.49l-1.3-.85a55.34,55.34,0,0,1-7.76,3.08v1.11s1.58.18,1.58,4.19h0V47.75Z"/><polygon points="141.25 19.3 136.87 14.44 132.5 19.3 136.87 24.16 141.25 19.3"/><path d="M152.1,47.86V34.69c1.52-1.47,3.31-2.87,4.81-2.87,1.88,0,2.33,1,2.44,1.49a4,4,0,0,1-.14,2l1.09.64a6.35,6.35,0,0,1,2.85-2,8,8,0,0,1,3.42-.77l.24-1.24a4.19,4.19,0,0,1-1.75-1.4s-2.83-4-6.35-4c-2.18,0-4.75,2.49-6.61,4.58v-.2a3.91,3.91,0,0,1,1.81-3.5l-1.3-.85a56.38,56.38,0,0,1-7.76,3.09v1.1s1.58.18,1.58,4.19V47.86c0,4.76-1.58,6-1.58,6l.77,1a6.89,6.89,0,0,1,3.64-.71,8.91,8.91,0,0,1,3.65.71l.77-1S152.1,52.62,152.1,47.86Z"/><path d="M179.27,54.87c6,0,9.86-3.14,9.72-3.94-.16-1,.09-1.56-.61-.92a13.71,13.71,0,0,1-7.25,2.12c-4,0-7.69-2.38-7.69-5.7s2.61-5.13,6.81-5.13c5.43,0,8.74-1.94,8.74-6.14,0-4.81-4.81-8.61-10.07-8.61-5.08,0-13.17,5.92-13.17,14.27C165.75,51.42,173.44,54.87,179.27,54.87Zm-6.52-20c.37-2.1,2.71-5.34,5.61-5.34a4.6,4.6,0,0,1,4.51,4.64,5.17,5.17,0,0,1-5,4.88,6.3,6.3,0,0,0-5.17,2.65C172.28,42.39,172.36,37.15,172.75,34.89Z"/><path d="M97.18,65.62l-.73-.5a2.93,2.93,0,0,1-1.38.71h0a41.51,41.51,0,0,1-4.1.86,7.49,7.49,0,0,0-.49-1.52A8.64,8.64,0,0,0,89,62.93a11.54,11.54,0,0,0-6.34-3.75A12.2,12.2,0,0,0,80.07,59l-.28,0a11.24,11.24,0,0,0-8.51,4.79c-2.25,3.73-1.56,8.75.53,10.52.33.29,1.3,1.08,1.43,1.65.32,1.39-3,1.71-3.86,4a5.66,5.66,0,0,0,.76,5.15,6.8,6.8,0,0,0,4.71,2.68c3.77.41,7.61.45,11.32,1.23,2.34.49,4.43,1.15,3.93,4.68A7.29,7.29,0,0,1,86.9,99c-4.74,3-10.53.5-11.18.06a4.32,4.32,0,0,1-1.43-4.94,5.81,5.81,0,0,1,2.06-2.53c.3-.24-4.18-.08-5.67,1.17-1.77,1.49-1.72,4.05-1.05,5.64,1.18,2.82,5.31,4.06,8.55,4.43a17.55,17.55,0,0,0,12-2.86c1.1-.75,5.34-3.68,5.23-8.39,0-1,0-4-2.3-6a11.69,11.69,0,0,0-4.25-2.34c-3.21-.85-9.93-.7-13.24-.91-1.46-.09-2.11-.4-2.2-.91-.13-.74,1.58-1.75,3-2.24,3.35-1.16,4.62-.22,7.38-1a10.81,10.81,0,0,0,5.54-3.9,10.14,10.14,0,0,0,1.78-4.82c1.82.27,4,.85,4,.85h0a2.91,2.91,0,0,1,1.4.71l.72-.51a4.37,4.37,0,0,1-.5-2.39A5.5,5.5,0,0,1,97.18,65.62ZM80.94,75.38c-3,.4-5.83-2.18-6.34-5.76s1.51-6.82,4.5-7.22,5.83,2.18,6.34,5.76S83.93,75,80.94,75.38Z"/><path d="M116.06,85.75l.77,1a6.93,6.93,0,0,1,3.64-.7,8.91,8.91,0,0,1,3.65.7l.77-1s-1.58-1.23-1.58-6V62.85a3.88,3.88,0,0,1,1.81-3.49l-1.3-.85a54.83,54.83,0,0,1-7.76,3.08V62.7s1.58.18,1.58,4.19V79.21c-2.29,1.75-4.59,2.84-6.63,2.84-4,0-6.05-3.48-6.05-8.38V62.9a3.88,3.88,0,0,1,1.81-3.49l-1.29-.85a56.33,56.33,0,0,1-7.77,3.08v1.11s1.59.17,1.59,4.18V78.61c0,5.26,2.76,8.22,6.94,8.22a17.55,17.55,0,0,0,11.11-3.94A5,5,0,0,1,116.06,85.75Z"/><path d="M199,59l-.57-.44s-.22.42-1.11.61a25,25,0,0,1-6.5.65,35.09,35.09,0,0,1,.86-8.61l-.86-.74c-5.14,12.08-9.81,9.38-9.81,9.38v3a4.3,4.3,0,0,1,4.14-.45v18s-.43,6.48,4.87,6.48,7-3.73,7-3.73l-1-1.34a5.38,5.38,0,0,1-3.68,1.87c-1.1,0-1.43-2-1.51-3.6V62.69c.67-.16,4.26-.95,6.48.29a5.55,5.55,0,0,1,1.1.62l.57-.44a4.08,4.08,0,0,1-.37-2.08A5.18,5.18,0,0,1,199,59Z"/></g></g></svg>