<svg xmlns="http://www.w3.org/2000/svg" viewBox="0 0 68.87 101.58"><title>Fichier 7</title><g id="Calque_2" data-name="Calque 2"><g id="Calque_5" data-name="Calque 5"><path d="M17.46,89.17l9,11.1a.81.81,0,0,0,1.25,0l9.61-11.75a.81.81,0,0,1,1.41.36l1.67,12.05a.8.8,0,0,0,1.4.36l6.35-7.79a.81.81,0,0,1,1.25,0l4,5.06a.8.8,0,0,0,1.41-.35L56.74,85a.77.77,0,0,1,.3-.49l7.72-5.57a.72.72,0,0,0,.25-.87L54.2,53.34a.77.77,0,0,0-.63-.45L41.1,51.34a.76.76,0,0,0-.88.84l2,14.31a.75.75,0,0,1-.67.84L21.08,69.88a.74.74,0,0,0-.52,1.19l7.15,8.79a.71.71,0,0,1-.14,1l-10,7.23A.71.71,0,0,0,17.46,89.17Z"/><path d="M68.46,23.37,43.78,15.26a.63.63,0,0,1-.4-.45L40.39.48A.6.6,0,0,0,39.24.41L34.35,15a.57.57,0,0,0,0,.46L46.46,39.33a.74.74,0,0,0,.2.23L59.3,47.88a.59.59,0,0,0,.9-.31l3-9.26a.6.6,0,0,0-.24-.68l-8-5.24a.61.61,0,0,1,.06-1l13.49-6.88A.6.6,0,0,0,68.46,23.37Z"/><path d="M7.44,8.93l-6.92,11A3.25,3.25,0,0,0,0,21.55l0,2.17a3,3,0,0,0,.29,1.36l4,8.65A3.21,3.21,0,0,1,4.39,36L1.61,45.33a3.17,3.17,0,0,0,.55,2.88L13.43,62.5A3.2,3.2,0,0,0,16,63.72l17.88-.25c1.68,0,4-.91,4-3L38.45,42a3.11,3.11,0,0,0-.18-1.13l-4-11.4L29.88,17.92a3.18,3.18,0,0,0-1.54-1.71L11.57,7.78A3.19,3.19,0,0,0,7.44,8.93Z"/></g></g></svg>